# xmcd
#
# Track frame offsets:
#	183
#	31108
#	54693
#	77585
#	115200
#	130558
#	176115
#	202915
#	225863
#
# Disc length: 3545 seconds
#
# Revision: 0
# Processed by: cddbd v1.5.1PL0 Copyright (c) Steve Scherf et al.
# Submitted via: dBpowerAMP V4.0
#
DISCID=640dd709
DTITLE=Eric Clapton - Royal Albert Hall - 1990 - 1991
DYEAR=1994
DGENRE=Blues
TTITLE0=Key To The Highway
TTITLE1=Worried Life Blues
TTITLE2=All Your Love
TTITLE3=Have You Ever Loved  A Woman
TTITLE4=Jognnie's Boogie
TTITLE5=Blues Medley: Standing Around Crying, Rampling On My Mind
TTITLE6=Hideaway
TTITLE7=Watch Yourself
TTITLE8=Sweet Home Chicago
EXTD=
EXTT0=
EXTT1=
EXTT2=
EXTT3=
EXTT4=
EXTT5=
EXTT6=
EXTT7=
EXTT8=
PLAYORDER=
